<?xml version="1.0" encoding="UTF-8"?>
<svg width="700pt" height="700pt" version="1.1" viewBox="0 0 700 700" xmlns="http://www.w3.org/2000/svg">
 <g>
  <path fill="#00ff28" d="m582.75 218.75c-14 1.75-22.75 1.75-35 0v253.75h-108.5v-110.25c-12.25 1.75-22.75 1.75-35 0v110.25h-108.5v-255.5c-12.25 1.75-22.75 1.75-35 0v253.75h-108.5v-110.25c-12.25 1.75-22.75 1.75-35 0v110.25h-47.25v35h560v-35h-47.25z"/>
  <path fill="#00ff28" d="m134.75 327.25c36.75 0 64.75-29.75 64.75-64.75 0-12.25-3.5-22.75-8.75-31.5l54.25-54.25c19.25 10.5 43.75 12.25 63 0l54.25 54.25c-5.25 8.75-8.75 21-8.75 31.5 0 36.75 29.75 64.75 64.75 64.75 36.75 0 64.75-29.75 64.75-64.75 0-12.25-3.5-22.75-8.75-31.5l54.25-54.25c8.75 5.25 21 8.75 31.5 8.75 36.75 0 64.75-29.75 64.75-64.75 0-36.75-29.75-64.75-64.75-64.75s-64.75 29.75-64.75 64.75c0 12.25 3.5 22.75 8.75 31.5l-54.25 54.25c-19.25-10.5-42-12.25-63 0l-54.25-54.25c5.25-8.75 8.75-21 8.75-31.5 0-36.75-29.75-64.75-64.75-64.75s-63 28-63 63c0 12.25 3.5 22.75 8.75 31.5l-54.25 54.25c-8.75-5.25-21-8.75-31.5-8.75-36.75 1.75-66.5 29.75-66.5 66.5s29.75 64.75 64.75 64.75z"/>
 </g>
</svg>
